<svg xmlns="http://www.w3.org/2000/svg" width="1305.24" height="384.743" viewBox="0 0 1305.24 384.743"><g transform="translate(0 0)"><rect width="1305.24" height="384.743" rx="91.616"/></g><g transform="translate(89.898 65.079)"><path d="M3340.437,558.618l-50.42,29.112h0l-41.269-40.837,4.995-5.193,36.1-35.745,50.6,29.213A13.54,13.54,0,0,1,3340.437,558.618Z" transform="translate(-3123.245 -419.663)" fill="#ffc900"/><path d="M3194.426,438.164l-36.1,35.745-5.119,5.069-121.327-123.21a13.5,13.5,0,0,1,16.26-2.063l98.441,56.836Z" transform="translate(-3027.832 -351.872)" fill="#00ef76"/><path d="M3150.151,482.163,3028.594,605.4a13.352,13.352,0,0,1-3.943-9.563V368.495a13.345,13.345,0,0,1,4.047-9.665h0l121.327,123.21Z" transform="translate(-3024.651 -354.933)" fill="#01cfff"/><path d="M3194.518,619.891,3146.5,647.615l-98.441,56.836a13.508,13.508,0,0,1-16.367-2.165l121.558-123.232Z" transform="translate(-3027.748 -451.824)" fill="#f63548"/></g><g transform="translate(369.826 84.449)"><g transform="translate(5.333 98.74)"><path d="M3589.938,630.318V617.634l47.252-.073v40.115a84.134,84.134,0,0,1-22.447,12.647,68.483,68.483,0,0,1-23.74,4.24,64.99,64.99,0,0,1-29.865-6.821,45.82,45.82,0,0,1-20.278-19.726,60.538,60.538,0,0,1-6.848-28.833,65.193,65.193,0,0,1,6.81-29.46,44.491,44.491,0,0,1,19.594-20.316q12.783-6.636,29.447-6.637a59.994,59.994,0,0,1,21.876,3.8,36.269,36.269,0,0,1,15.332,10.582q5.554,6.785,8.447,17.7l-13.316,3.54a39.436,39.436,0,0,0-6.239-12.979,25.572,25.572,0,0,0-10.653-7.558,40.163,40.163,0,0,0-15.37-2.839,46.527,46.527,0,0,0-17.5,2.987,32.7,32.7,0,0,0-11.908,7.853,37.318,37.318,0,0,0-7.039,10.693,55.039,55.039,0,0,0-4.261,21.753q0,14.454,5.136,24.187a32.387,32.387,0,0,0,14.951,14.453,47.508,47.508,0,0,0,20.849,4.719,50.888,50.888,0,0,0,18.718-3.576q9.131-3.576,13.849-7.632V630.318Z" transform="translate(-3534.012 -562.77)" fill="#fff"/><path d="M3751.834,657.024q0-21.752,12.479-32.224,10.424-8.7,25.414-8.7,16.664,0,27.24,10.582t10.577,29.239q0,15.117-4.68,23.781a32.6,32.6,0,0,1-13.62,13.458,40.664,40.664,0,0,1-19.517,4.793q-16.968,0-27.43-10.545T3751.834,657.024Zm14.077,0q0,15.044,6.772,22.529a23.023,23.023,0,0,0,34.012-.037q6.772-7.522,6.772-22.933,0-14.527-6.809-22.012a23.058,23.058,0,0,0-33.975-.037Q3765.91,641.982,3765.911,657.024Z" transform="translate(-3629.846 -586.232)" fill="#fff"/><path d="M3913.542,657.024q0-21.752,12.479-32.224,10.423-8.7,25.414-8.7,16.664,0,27.24,10.582t10.577,29.239q0,15.117-4.68,23.781a32.6,32.6,0,0,1-13.62,13.458,40.666,40.666,0,0,1-19.517,4.793q-16.968,0-27.43-10.545T3913.542,657.024Zm14.077,0q0,15.044,6.772,22.529a23.024,23.024,0,0,0,34.012-.037q6.771-7.522,6.772-22.933,0-14.527-6.811-22.012a23.057,23.057,0,0,0-33.974-.037Q3927.618,641.982,3927.619,657.024Z" transform="translate(-3700.992 -586.232)" fill="#fff"/><path d="M4077.719,702.67l13.316,1.918q.836,5.973,4.642,8.7,5.1,3.687,13.924,3.687,9.511,0,14.686-3.687a18.123,18.123,0,0,0,7-10.324q1.066-4.057.99-17.035a28.528,28.528,0,0,1-22.371,10.25q-16.664,0-25.794-11.651t-9.131-27.947a50.629,50.629,0,0,1,4.185-20.685A32.667,32.667,0,0,1,4091.3,621.26a33.545,33.545,0,0,1,18.681-5.162,29.309,29.309,0,0,1,23.588,11.208v-9.439H4146.2v67.695q0,18.288-3.842,25.92a27.653,27.653,0,0,1-12.175,12.056q-8.332,4.425-20.506,4.425-14.457,0-23.359-6.3T4077.719,702.67Zm11.337-47.047q0,15.413,6.315,22.491a21.268,21.268,0,0,0,31.654.037q6.39-7.041,6.391-22.086,0-14.38-6.582-21.68a20.617,20.617,0,0,0-15.865-7.3,20.022,20.022,0,0,0-15.523,7.19Q4089.057,641.465,4089.057,655.624Z" transform="translate(-3772.019 -586.232)" fill="#fff"/><path d="M4245.519,674.167V566.062h13.7V674.167Z" transform="translate(-3847.05 -564.218)" fill="#fff"/><path d="M4366.57,670.962l14.153,1.7q-3.349,12.02-12.4,18.657t-23.131,6.636q-17.73,0-28.116-10.582t-10.386-29.681q0-19.762,10.5-30.677t27.24-10.914q16.207,0,26.479,10.693t10.272,30.086q0,1.18-.076,3.54H4320.84q.76,12.9,7.533,19.763a22.774,22.774,0,0,0,16.893,6.858,21.42,21.42,0,0,0,12.859-3.834Q4363.449,679.369,4366.57,670.962ZM4321.6,649.5h45.122q-.913-9.881-5.174-14.822a21.264,21.264,0,0,0-16.968-7.669,22.128,22.128,0,0,0-15.865,6.121Q4322.284,639.254,4321.6,649.5Z" transform="translate(-3873.962 -586.232)" fill="#fff"/><path d="M4563.937,674.167V566.062h42.078a104.774,104.774,0,0,1,16.968,1.033,34.277,34.277,0,0,1,13.772,5.051,26.734,26.734,0,0,1,8.94,10.435,32.279,32.279,0,0,1,3.386,14.749,32.655,32.655,0,0,1-9.055,23.339q-9.056,9.551-32.719,9.55H4578.7v43.95ZM4578.7,617.46h28.838q14.3,0,20.316-5.162t6.011-14.527a19.115,19.115,0,0,0-3.538-11.614,16.548,16.548,0,0,0-9.321-6.379q-3.729-.957-13.772-.958H4578.7Z" transform="translate(-3987.143 -564.218)" fill="#fff"/><path d="M4752.82,674.167V566.062h13.7V674.167Z" transform="translate(-4070.245 -564.218)" fill="#fff"/><path d="M4871.222,686.521a51.278,51.278,0,0,1-14.647,8.849,43.542,43.542,0,0,1-15.1,2.581q-13.317,0-20.468-6.3a20.515,20.515,0,0,1-7.153-16.113,20.9,20.9,0,0,1,2.7-10.508,21.9,21.9,0,0,1,7.076-7.632,33.79,33.79,0,0,1,9.854-4.351,100.9,100.9,0,0,1,12.175-1.991q16.586-1.917,24.425-4.572.075-2.727.076-3.466,0-8.112-3.881-11.43-5.25-4.5-15.6-4.5-9.664,0-14.267,3.282t-6.81,11.614l-13.392-1.77a31.68,31.68,0,0,1,6.011-13.458q4.183-5.123,12.1-7.89a55.527,55.527,0,0,1,18.338-2.765q10.348,0,16.815,2.36t9.512,5.936a20.606,20.606,0,0,1,4.261,9.033,72.477,72.477,0,0,1,.685,12.241v17.7q0,18.51.875,23.413a28.907,28.907,0,0,0,3.463,9.4h-14.305A27.462,27.462,0,0,1,4871.222,686.521Zm-1.141-29.644q-7.458,2.95-22.371,5.015-8.446,1.18-11.946,2.655a11.836,11.836,0,0,0-5.4,4.314,11.469,11.469,0,0,0,2.244,15.154q4.146,3.539,12.137,3.539a28.95,28.95,0,0,0,14.076-3.355,20.949,20.949,0,0,0,9.055-9.181q2.206-4.5,2.207-13.273Z" transform="translate(-4097.096 -586.232)" fill="#fff"/><path d="M4977.141,727.732l-1.521-12.462a31.462,31.462,0,0,0,7.837,1.18,15.447,15.447,0,0,0,7.305-1.475,12.312,12.312,0,0,0,4.489-4.13q1.293-1.991,4.185-9.881.381-1.106,1.218-3.245l-30.665-78.461h14.761l16.816,45.351q3.27,8.627,5.859,18.141a174.2,174.2,0,0,1,5.631-17.846l17.272-45.646h13.7l-30.74,79.641q-4.947,12.9-7.685,17.772a26.461,26.461,0,0,1-8.371,9.623,20.24,20.24,0,0,1-11.261,3.061A28.222,28.222,0,0,1,4977.141,727.732Z" transform="translate(-4165.792 -587.623)" fill="#fff"/></g><path d="M3568.437,409.519v24.589H3564.4l-1.616-5.8q-5.789,6.914-15.479,6.914-10.23,0-16.522-6.62t-6.293-17.317q0-10.63,6.225-17.61t17.061-6.979a25.576,25.576,0,0,1,9.288,1.663,18.05,18.05,0,0,1,7.336,5.218,14.457,14.457,0,0,1,3.432,8.382h-6.192a10.944,10.944,0,0,0-4.542-7.338,15.4,15.4,0,0,0-9.321-2.772q-7.808,0-12.383,5.185t-4.577,14.055q0,8.742,4.577,13.893t12.316,5.152q7.269,0,11.071-4.272t4-11.316H3547.44v-5.022Z" transform="translate(-3524.49 -386.561)" fill="#fff"/><path d="M3656.088,388.439v5.348h-26.853v14.545h25.1v5.152h-25.1v16.045h27.189v5.348h-33.515V388.439Z" transform="translate(-3567.791 -387.33)" fill="#fff"/><path d="M3728.458,388.439v5.348h-16.084v41.09h-6.326v-41.09h-16.085v-5.348Z" transform="translate(-3597.292 -387.33)" fill="#fff"/><path d="M3814.536,388.439v46.438h-6.326V388.439Z" transform="translate(-3649.317 -387.33)" fill="#fff"/><path d="M3870.979,388.439v5.348H3854.9v41.09h-6.326v-41.09h-16.085v-5.348Z" transform="translate(-3659.997 -387.33)" fill="#fff"/><path d="M3968.325,386.459q10.9,0,16.96,6.62t6.057,17.316q0,10.762-5.99,17.741t-16.96,6.979a24.629,24.629,0,0,1-10.027-1.956,18.908,18.908,0,0,1-7.235-5.414,24.5,24.5,0,0,1-4.24-7.892,30.712,30.712,0,0,1-1.447-9.588q0-10.891,6.225-17.349T3968.325,386.459Zm0,5.348q-8.01,0-12.282,5.446a21.145,21.145,0,0,0-4.274,13.469q0,8.741,4.542,13.925a15.344,15.344,0,0,0,12.148,5.185,15.124,15.124,0,0,0,12.047-5.218q4.507-5.218,4.509-13.892,0-8.61-4.543-13.762A15.391,15.391,0,0,0,3968.325,391.807Z" transform="translate(-3709.695 -386.459)" fill="#fff"/><path d="M4044.1,388.439h6.932l25.305,37.7v-37.7h6.124v46.438h-7.134l-25.17-37.242v37.242H4044.1Z" transform="translate(-3753.102 -387.33)" fill="#fff"/></g></svg>