<svg xmlns="http://www.w3.org/2000/svg" width="791" height="791" viewBox="0 0 791 791"><g transform="translate(-874 -1377)"><rect width="791" height="791" transform="translate(874 1377)" fill="none"/><g transform="translate(965.098 1468.098)"><path d="M155.157,3H459.471A152.157,152.157,0,0,1,611.628,155.157V459.471A152.157,152.157,0,0,1,459.471,611.628H155.157A152.157,152.157,0,0,1,3,459.471V155.157A152.157,152.157,0,0,1,155.157,3Z" transform="translate(-3 -3)" fill="none" stroke="#383838" stroke-linecap="round" stroke-linejoin="round" stroke-width="40"/><path d="M257.686,117.305A123.477,123.477,0,1,1,153.657,13.276,123.477,123.477,0,0,1,257.686,117.305Z" transform="translate(170.073 167.593)" fill="none" stroke="#383838" stroke-linecap="round" stroke-linejoin="round" stroke-width="40"/><path d="M26.25,9.75h0" transform="translate(445.437 127.191)" fill="none" stroke="#383838" stroke-linecap="round" stroke-linejoin="round" stroke-width="40"/></g></g></svg>