<svg xmlns="http://www.w3.org/2000/svg" width="1305.24" height="384.743" viewBox="0 0 1305.24 384.743"><g transform="translate(0)"><rect width="1305.24" height="384.743" rx="91.616"/></g><g transform="translate(106.816 66.672)"><path d="M654.507,394.963c-13.7,16.5-37.546,19.285-37.546,19.285s-1.638-23.954,12.06-40.45,37.545-19.285,37.545-19.285S668.2,378.467,654.507,394.963Z" transform="translate(-516.923 -354.513)" fill="#fff"/><path d="M607.142,543.785c0-20.75,10.8-38.4,25.881-44.959a58.1,58.1,0,0,0-20.572-20.255c-31.514-17.725-45.494,3.5-69.81,3.5s-38.3-21.22-69.81-3.5c-21.758,12.236-34.451,40.675-34.451,75.163,0,40.972,23.572,85.65,55.376,101.591,13.871,6.939,32.058-5.768,48.885-7.1,16.827,1.329,35.013,14.036,48.885,7.1,22.179-11.117,40.342-36.212,49.312-64.276C621.818,587.94,607.142,567.972,607.142,543.785Z" transform="translate(-438.38 -405.987)" fill="#fff"/></g><g transform="translate(452.414 72.105)"><g transform="translate(6.624)"><path d="M1067.309,364.214h19.449q15.172,0,22.383,7.042t7.21,22.3q0,15.008-6.707,22.677t-21.462,7.671h-20.874Zm7.88,6.791v46.109h11.988q11.233,0,16.306-5.492t5.072-17.144q0-12.24-4.946-17.857T1086.842,371Z" transform="translate(-1067.309 -364.214)" fill="#fff"/><path d="M1175.849,397.512q5.7-6.2,15.509-6.2t15.258,5.952q5.449,5.953,5.449,16.683,0,10.984-5.449,17.1t-15.342,6.12q-9.893,0-15.51-6.036t-5.617-16.767Q1170.148,403.718,1175.849,397.512Zm25.276,4.318a13.091,13.091,0,0,0-19.911.042q-3.689,4.611-3.688,12.323,0,7.966,3.647,12.45t10.185,4.485a11.84,11.84,0,0,0,9.85-4.527q3.563-4.527,3.563-12.492Q1204.771,406.4,1201.125,401.83Z" transform="translate(-1112.555 -376.135)" fill="#fff"/><path d="M1256.819,393.555h7.881l9.893,35.629,8.8-35.629h7.8l9.138,35.629,9.809-35.629h7.377l-13.833,43.258h-7.545l-8.887-34.2-8.8,34.2h-7.713Z" transform="translate(-1150.687 -377.123)" fill="#fff"/><path d="M1387.771,392.633v6.706a16.92,16.92,0,0,1,14.755-7.88q7.627,0,11.024,3.982t3.4,11.7v28.755h-7.126V410.406a46.133,46.133,0,0,0-.209-4.988,14.86,14.86,0,0,0-1.048-3.856,5.421,5.421,0,0,0-2.851-2.977,12.565,12.565,0,0,0-5.2-.921q-12.324,0-12.324,15.592v22.635h-7.126V392.633Z" transform="translate(-1205.351 -376.201)" fill="#fff"/><path d="M1475.846,364.214V423.9h-7.21v-59.69Z" transform="translate(-1243.879 -364.214)" fill="#fff"/><path d="M1506.669,397.512q5.7-6.2,15.509-6.2t15.258,5.952q5.448,5.953,5.449,16.683,0,10.984-5.449,17.1t-15.342,6.12q-9.892,0-15.509-6.036t-5.616-16.767Q1500.968,403.718,1506.669,397.512Zm25.276,4.318a13.091,13.091,0,0,0-19.911.042q-3.69,4.611-3.688,12.323,0,7.966,3.647,12.45t10.185,4.485a11.841,11.841,0,0,0,9.85-4.527q3.563-4.527,3.563-12.492Q1535.591,406.4,1531.945,401.83Z" transform="translate(-1258.104 -376.135)" fill="#fff"/><path d="M1631.143,430.19v5.533a13.466,13.466,0,0,1-4.862.838q-6.121,0-6.287-6.371a20.045,20.045,0,0,1-15.677,6.874q-6.373,0-10.1-3.269a11.306,11.306,0,0,1-3.731-8.97q0-11.569,15.342-13.5a86.367,86.367,0,0,0,10.479-1.593,4.451,4.451,0,0,0,3.27-4.192,6.739,6.739,0,0,0,.084-1.09q0-7.124-9.808-7.126-5.03,0-7.629,2.054t-3.1,6.748h-6.958q.167-6.957,4.946-10.815t13.162-3.856q9.136,0,13.581,4.192a7.928,7.928,0,0,1,2.1,3.52,16.1,16.1,0,0,1,.754,3.563q.082,1.384.084,4.15,0,3.27-.168,9.683t-.167,9.6a6.377,6.377,0,0,0,.629,3.311,2.543,2.543,0,0,0,2.305.964A8.246,8.246,0,0,0,1631.143,430.19Zm-11.485-16.767a9.526,9.526,0,0,1-1.593,1.006,8.349,8.349,0,0,1-2.138.67q-1.3.252-1.76.378a20.6,20.6,0,0,1-2.222.335q-1.761.21-1.844.209-2.6.336-3.4.461t-3.018.713a8.642,8.642,0,0,0-3.144,1.341,8.492,8.492,0,0,0-1.8,2.222,6.635,6.635,0,0,0-.88,3.479,6.514,6.514,0,0,0,2.306,5.282,9.561,9.561,0,0,0,6.329,1.928,14.839,14.839,0,0,0,9.138-3.018q4.024-3.018,4.024-7.126Z" transform="translate(-1297.487 -376.201)" fill="#fff"/><path d="M1716.2,364.214V423.9H1709.5v-6.371q-4.108,7.545-14.252,7.545-9.223,0-14.629-6.161t-5.408-16.725q0-9.808,5.072-16.305t14.629-6.5q9.305,0,14.168,7.042V364.214Zm-20.372,21.294a11.751,11.751,0,0,0-9.683,4.444q-3.563,4.444-3.563,12.072,0,7.881,3.647,12.534a12.679,12.679,0,0,0,19.491.167q3.522-4.484,3.521-12.45a20.612,20.612,0,0,0-3.311-11.946Q1702.621,385.509,1695.831,385.508Z" transform="translate(-1334.763 -364.214)" fill="#fff"/><path d="M1818.327,397.512q5.7-6.2,15.509-6.2t15.258,5.952q5.448,5.953,5.449,16.683,0,10.984-5.449,17.1t-15.342,6.12q-9.892,0-15.509-6.036t-5.617-16.767Q1812.626,403.718,1818.327,397.512Zm25.276,4.318a13.091,13.091,0,0,0-19.911.042Q1820,406.483,1820,414.2q0,7.966,3.646,12.45t10.186,4.485a11.84,11.84,0,0,0,9.85-4.527q3.563-4.527,3.563-12.492Q1847.249,406.4,1843.6,401.83Z" transform="translate(-1395.222 -376.135)" fill="#fff"/><path d="M1913.04,392.633v6.706a16.919,16.919,0,0,1,14.755-7.88q7.627,0,11.024,3.982t3.4,11.7v28.755h-7.126V410.406a45.975,45.975,0,0,0-.209-4.988,14.851,14.851,0,0,0-1.048-3.856,5.42,5.42,0,0,0-2.85-2.977,12.566,12.566,0,0,0-5.2-.921q-12.324,0-12.323,15.592v22.635h-7.126V392.633Z" transform="translate(-1436.45 -376.201)" fill="#fff"/><path d="M2053.633,383.478v5.868H2045V414.58q0,2.1.042,2.767a6.71,6.71,0,0,0,.462,1.8,2.26,2.26,0,0,0,1.425,1.467,9.417,9.417,0,0,0,2.85.335,35.806,35.806,0,0,0,3.856-.251v6.12a49.964,49.964,0,0,1-5.449.335,16.136,16.136,0,0,1-5.03-.67,10.008,10.008,0,0,1-3.06-1.509,5.233,5.233,0,0,1-1.551-2.977,21.482,21.482,0,0,1-.587-3.6q-.084-1.466-.083-4.9V389.346h-7.294v-5.868h7.294V370.651H2045v12.827Z" transform="translate(-1491.114 -367.046)" fill="#fff"/><path d="M2096.683,364.214v22.551q4.778-7.209,14.168-7.209,14.587,0,14.587,14.755V423.9h-7.126V395.987q0-4.945-2.054-7.587t-7.419-2.641q-6.539,0-9.348,4.192t-2.808,11.988V423.9h-7.126v-59.69Z" transform="translate(-1517.062 -364.214)" fill="#fff"/><path d="M2211.721,422.16q-3.27,15.091-18.863,15.09-9.557,0-14.964-5.952t-5.408-16.515q0-10.479,5.575-16.976a18.254,18.254,0,0,1,14.545-6.5q9.976,0,14.8,6.748t4.821,17.06v1.006H2179.7l-.083.5q0,6.875,3.6,10.814t9.893,3.94a11.553,11.553,0,0,0,7.419-2.18q2.723-2.179,4.234-7.042Zm-6.874-11.82q-.5-6.2-3.773-9.684a11.3,11.3,0,0,0-8.635-3.478,11.565,11.565,0,0,0-8.635,3.52,15.8,15.8,0,0,0-4.108,9.642Z" transform="translate(-1553.549 -376.135)" fill="#fff"/></g><g transform="translate(0 107.05)"><path d="M1118.658,558.956l42.583,110.405h-20.749l-10.53-29.266H1086.3l-10.839,29.266h-19.975l42.583-110.405Zm6.194,66.584-16.414-46.454-17.187,46.454Z" transform="translate(-1055.481 -556.943)" fill="#fff"/><path d="M1282.737,611.6v10.684q8.049-13.007,26.014-13.007,16.568,0,26.479,11.613t9.91,30.969q0,18.894-9.678,30.272t-25.782,11.382q-17.036,0-26.014-12.543v40.1h-17.5V611.6Zm22.453,11.923q-10.376,0-16.259,7.433t-5.884,20.595q0,13.007,5.961,20.44t16.491,7.433q10.063,0,15.949-7.433t5.884-20.13q0-13.007-5.962-20.672T1305.189,623.524Z" transform="translate(-1148.176 -579.083)" fill="#fff"/><path d="M1458.585,611.6v10.684q8.05-13.007,26.014-13.007,16.567,0,26.479,11.613t9.91,30.969q0,18.894-9.678,30.272t-25.782,11.382q-17.035,0-26.014-12.543v40.1h-17.5V611.6Zm22.453,11.923q-10.377,0-16.259,7.433t-5.884,20.595q0,13.007,5.962,20.44t16.491,7.433q10.064,0,15.949-7.433t5.884-20.13q0-13.007-5.961-20.672T1481.038,623.524Z" transform="translate(-1225.543 -579.083)" fill="#fff"/><path d="M1779.287,590.047H1760.86q-1.706-19.354-24-19.355-9.911,0-15.484,4.1a13.194,13.194,0,0,0-5.575,11.227q0,6.659,4.1,9.135T1738.1,601.2q3.716,1.085,5.73,1.549,18.425,4.645,25.085,8.361,14.708,7.9,14.71,24.621a33.632,33.632,0,0,1-2.477,13.162,28.541,28.541,0,0,1-6.658,9.833,36.455,36.455,0,0,1-9.91,6.581,50.905,50.905,0,0,1-11.923,3.794,69.662,69.662,0,0,1-12.852,1.161q-20.752,0-33.6-9.911t-12.852-29.111h19.046q0,12.077,7.9,17.885t20.594,5.807q11.149,0,17.42-4.568a14.9,14.9,0,0,0,6.271-12.775,11.639,11.639,0,0,0-3.329-8.594,19.614,19.614,0,0,0-7.2-4.723q-3.873-1.394-13.472-3.871c-.723-.206-1.292-.361-1.7-.465q-20.6-5.262-27.1-8.671-13.471-6.968-14.4-21.524V587.57q0-14.709,11.072-23.459t29.653-8.748q17.961,0,29.266,8.516T1779.287,590.047Z" transform="translate(-1336.12 -555.362)" fill="#fff"/><path d="M1919.864,594.57v12.852h-16.1v42.119q0,3.716.155,5.187a11.085,11.085,0,0,0,.929,3.252,4.187,4.187,0,0,0,2.71,2.4,18.181,18.181,0,0,0,5.342.619,61.873,61.873,0,0,0,6.968-.31v13.937a103.254,103.254,0,0,1-11.923.619,41.884,41.884,0,0,1-8.129-.7,33.7,33.7,0,0,1-5.807-1.626,8.483,8.483,0,0,1-3.871-3.175q-1.55-2.243-2.4-3.716a14.144,14.144,0,0,1-1.239-5.187q-.388-3.716-.387-5.652v-47.77h-13.316V594.57h13.316v-24h17.653v24Z" transform="translate(-1415.069 -562.053)" fill="#fff"/><path d="M2020.24,609.278q18.269,0,29.111,11.459t10.84,30.814q0,19.511-10.761,30.969t-29.189,11.459q-18.738,0-29.73-11.459t-10.994-30.969q0-19.355,11.071-30.814T2020.24,609.278Zm16.181,21.446q-5.963-7.508-16.491-7.51t-16.568,7.588q-6.039,7.588-6.039,20.749,0,13.472,6.039,21.059t16.723,7.587q10.372,0,16.336-7.665t5.962-21.137Q2042.383,638.237,2036.422,630.724Z" transform="translate(-1462.024 -579.083)" fill="#fff"/><path d="M2201.02,610.417V627.3q-4.645-.465-6.194-.464-23.073,0-23.072,29.885v35.15h-17.5v-79.9h16.569v15.949q8.514-17.8,26.789-17.807Z" transform="translate(-1538.904 -579.448)" fill="#fff"/><path d="M2329.633,666.571q-2.943,13.007-12.775,20.285t-23.459,7.278q-18.118,0-28.724-11.691t-10.607-29.962q0-18.734,10.917-30.969t27.794-12.233q17.5,0,27.718,12t10.219,32.75v1.858h-59q.309,12.078,6.039,18.659t15.949,6.581q7.277,0,11.846-3.484t7.2-11.071Zm-16.569-22.453q-.776-10.064-6.271-15.872a18.64,18.64,0,0,0-14.168-5.806q-8.673,0-14.014,5.575t-6.581,16.1Z" transform="translate(-1582.817 -579.083)" fill="#fff"/></g></g></svg>