<svg xmlns="http://www.w3.org/2000/svg" width="4302" height="4302" viewBox="0 0 4302 4302"><g transform="translate(-1022 -1377)"><rect width="4302" height="4302" transform="translate(1022 1377)" fill="none"/><path d="M3132.55,5.946A1551.285,1551.285,0,0,1,2685.664,223.7,637.6,637.6,0,0,0,1567.025,650.657V792.978A1517.137,1517.137,0,0,1,286.141,148.266s-569.282,1280.884,711.6,1850.166A1656.612,1656.612,0,0,1,1.5,2283.073c1280.884,711.6,2846.409,0,2846.409-1636.685a640.414,640.414,0,0,0-11.385-118.126A1098.711,1098.711,0,0,0,3132.55,5.946Z" transform="translate(1606.269 2246.909)" fill="none" stroke="#383838" stroke-linecap="round" stroke-linejoin="round" stroke-width="200"/></g></svg>