<svg xmlns="http://www.w3.org/2000/svg" width="5434.3" height="2670" viewBox="0 0 5434.3 2670"><path d="M1021.186,1359.4l532.521,905.285C1603.155,2348.37,1645,2382.6,1743.892,2382.6h178.775c76.074,0,117.916-34.234,117.916-98.9,0-45.645-11.411-76.074-53.252-144.541L1317.876,1039.891,1975.919-36.562c41.841-68.466,57.056-98.9,57.056-144.541,0-64.663-45.644-98.9-121.719-98.9H1743.892c-95.093,0-136.934,34.233-186.382,117.916L1036.4,720.378,511.487-162.084C462.039-245.767,420.2-280,325.105-280H146.33c-79.878,0-121.719,34.233-121.719,98.9,0,45.645,15.215,76.075,53.252,144.541L739.711,1039.891,66.452,2139.166c-38.037,68.467-53.252,98.9-53.252,144.541,0,64.663,45.645,98.9,121.719,98.9h163.56c95.093,0,140.738-34.234,186.382-117.915Z" transform="translate(-13.2 283.698)" fill="#383838"/><path d="M928.025,2385.6c576.9,0,906.024-306.939,906.024-839.46V547.664c0-528.823-332.825-832.064-906.024-832.064S22,18.841,22,547.664v998.477C22,2078.661,351.127,2385.6,928.025,2385.6Zm0-366.108c-306.939,0-462.258-151.62-462.258-451.163V532.871c0-299.543,155.318-451.163,462.258-451.163s462.258,151.62,462.258,451.163V1568.329C1390.282,1867.871,1234.964,2019.492,928.025,2019.492Z" transform="translate(3600.251 284.4)" fill="#383838"/><path d="M77.716,1154.322h73.961c38.83,0,64.716-25.887,64.716-64.716V190.977l353.165,878.29c24.037,61.018,55.471,85.055,118.338,85.055H776.65c66.565,0,105.395-38.83,105.395-101.7V-75.283c0-38.83-25.887-64.717-64.716-64.717H743.367c-38.829,0-64.716,25.887-64.716,64.717V834.439L327.335-54.944C303.3-115.963,271.864-140,209-140h-90.6C51.83-140,13-101.17,13-38.3V1089.606C13,1128.435,38.886,1154.322,77.716,1154.322Z" transform="translate(2324.174 689.754)" fill="rgba(55,55,55,0.99)"/><path d="M92.452,0H878.289a92.452,92.452,0,1,1,0,184.9H92.452a92.452,92.452,0,0,1,0-184.9Z" transform="translate(2290.949 1972.916)" fill="#fccd60"/><path d="M92.452,0H878.289a92.452,92.452,0,1,1,0,184.9H92.452a92.452,92.452,0,0,1,0-184.9Z" transform="translate(2290.949 2287.25)" fill="#f82d72"/></svg>